<svg width="264" height="250" viewBox="0 0 264 250" fill="none" xmlns="http://www.w3.org/2000/svg">
<path d="M0 100C1.14805e-06 86.8678 2.58658 73.8642 7.61205 61.7316C12.6375 49.5991 20.0035 38.5752 29.2893 29.2893C38.5752 20.0035 49.5991 12.6375 61.7317 7.61204C73.8642 2.58657 86.8678 -1.72208e-06 100 0C113.132 1.72208e-06 126.136 2.58658 138.268 7.61205C150.401 12.6375 161.425 20.0035 170.711 29.2893C179.997 38.5752 187.362 49.5991 192.388 61.7317C197.413 73.8642 200 86.8678 200 100L150 100C150 93.4339 148.707 86.9321 146.194 80.8658C143.681 74.7996 139.998 69.2876 135.355 64.6447C130.712 60.0017 125.2 56.3188 119.134 53.806C113.068 51.2933 106.566 50 100 50C93.4339 50 86.9321 51.2933 80.8658 53.806C74.7996 56.3188 69.2876 60.0017 64.6447 64.6447C60.0017 69.2876 56.3188 74.7995 53.806 80.8658C51.2933 86.9321 50 93.4339 50 100L0 100Z" fill="white"/>
<path d="M100 250C73.4784 250 48.043 239.464 29.2893 220.711C10.5357 201.957 4.00466e-06 176.522 0 150L50 150C50 163.261 55.2678 175.979 64.6447 185.355C74.0215 194.732 86.7392 200 100 200L100 250Z" fill="white"/>
<rect y="100" width="200" height="50" fill="white"/>
<path d="M32 100C32 86.8678 34.5866 73.8642 39.6121 61.7316C44.6375 49.5991 52.0035 38.5752 61.2893 29.2893C70.5752 20.0035 81.5991 12.6375 93.7317 7.61204C105.864 2.58657 118.868 -1.72208e-06 132 0C145.132 1.72208e-06 158.136 2.58658 170.268 7.61205C182.401 12.6375 193.425 20.0035 202.711 29.2893C211.997 38.5752 219.362 49.5991 224.388 61.7317C229.413 73.8642 232 86.8678 232 100L182 100C182 93.4339 180.707 86.9321 178.194 80.8658C175.681 74.7996 171.998 69.2876 167.355 64.6447C162.712 60.0017 157.2 56.3188 151.134 53.806C145.068 51.2933 138.566 50 132 50C125.434 50 118.932 51.2933 112.866 53.806C106.8 56.3188 101.288 60.0017 96.6447 64.6447C92.0017 69.2876 88.3188 74.7995 85.806 80.8658C83.2933 86.9321 82 93.4339 82 100L32 100Z" fill="black"/>
<path d="M132 250C105.478 250 80.043 239.464 61.2893 220.711C42.5357 201.957 32 176.522 32 150L82 150C82 163.261 87.2678 175.979 96.6447 185.355C106.021 194.732 118.739 200 132 200L132 250Z" fill="black"/>
<rect x="32" y="100" width="200" height="50" fill="black"/>
<path d="M64 100C64 86.8678 66.5866 73.8642 71.6121 61.7316C76.6375 49.5991 84.0035 38.5752 93.2893 29.2893C102.575 20.0035 113.599 12.6375 125.732 7.61204C137.864 2.58657 150.868 -1.72208e-06 164 0C177.132 1.72208e-06 190.136 2.58658 202.268 7.61205C214.401 12.6375 225.425 20.0035 234.711 29.2893C243.997 38.5752 251.362 49.5991 256.388 61.7317C261.413 73.8642 264 86.8678 264 100L214 100C214 93.4339 212.707 86.9321 210.194 80.8658C207.681 74.7996 203.998 69.2876 199.355 64.6447C194.712 60.0017 189.2 56.3188 183.134 53.806C177.068 51.2933 170.566 50 164 50C157.434 50 150.932 51.2933 144.866 53.806C138.8 56.3188 133.288 60.0017 128.645 64.6447C124.002 69.2876 120.319 74.7995 117.806 80.8658C115.293 86.9321 114 93.4339 114 100L64 100Z" fill="white"/>
<path d="M164 250C137.478 250 112.043 239.464 93.2893 220.711C74.5357 201.957 64 176.522 64 150L114 150C114 163.261 119.268 175.979 128.645 185.355C138.021 194.732 150.739 200 164 200L164 250Z" fill="white"/>
<rect x="64" y="100" width="200" height="50" fill="white"/>
</svg>
