<svg width="264" height="250" viewBox="0 0 264 250" fill="none" xmlns="http://www.w3.org/2000/svg">
<path fill-rule="evenodd" clip-rule="evenodd" d="M7.61205 61.7316C2.58658 73.8642 1.90735e-06 86.8678 0 100H32C32 86.8678 34.5866 73.8642 39.6121 61.7316C44.6375 49.5991 52.0035 38.5752 61.2893 29.2893C70.5752 20.0035 81.5991 12.6375 93.7317 7.61204C100.901 4.64227 108.375 2.5242 116 1.2883C110.722 0.432802 105.372 0 100 0C86.8678 0 73.8642 2.58657 61.7317 7.61204C49.5991 12.6375 38.5752 20.0035 29.2893 29.2893C20.0035 38.5752 12.6375 49.5991 7.61205 61.7316ZM182 100C182 93.4339 180.707 86.9321 178.194 80.8658C175.681 74.7996 171.998 69.2876 167.355 64.6447C162.712 60.0017 157.2 56.3188 151.134 53.806C145.068 51.2933 138.566 50 132 50C126.552 50 121.148 50.8904 116 52.6291C117.056 52.9858 118.101 53.3783 119.134 53.806C125.2 56.3188 130.712 60.0017 135.355 64.6447C139.998 69.2876 143.681 74.7996 146.194 80.8658C148.707 86.9321 150 93.4339 150 100H182Z" fill="white"/>
<path fill-rule="evenodd" clip-rule="evenodd" d="M29.2893 220.711C48.043 239.464 73.4783 250 100 250V244.742C85.5535 239.862 72.275 231.696 61.2893 220.711C42.5357 201.957 32 176.522 32 150H0C4.00466e-06 176.522 10.5357 201.957 29.2893 220.711Z" fill="white"/>
<path fill-rule="evenodd" clip-rule="evenodd" d="M32 100H0V150H32V100Z" fill="white"/>
<path d="M64 100C64 86.8678 66.5866 73.8642 71.6121 61.7316C76.6375 49.5991 84.0035 38.5752 93.2893 29.2893C102.575 20.0035 113.599 12.6375 125.732 7.61204C137.864 2.58657 150.868 -1.72208e-06 164 0C177.132 1.72208e-06 190.136 2.58658 202.268 7.61205C214.401 12.6375 225.425 20.0035 234.711 29.2893C243.997 38.5752 251.362 49.5991 256.388 61.7317C261.413 73.8642 264 86.8678 264 100L214 100C214 93.4339 212.707 86.9321 210.194 80.8658C207.681 74.7996 203.998 69.2876 199.355 64.6447C194.712 60.0017 189.2 56.3188 183.134 53.806C177.068 51.2933 170.566 50 164 50C157.434 50 150.932 51.2933 144.866 53.806C138.8 56.3188 133.288 60.0017 128.645 64.6447C124.002 69.2876 120.319 74.7995 117.806 80.8658C115.293 86.9321 114 93.4339 114 100L64 100Z" fill="white"/>
<path d="M164 250C137.478 250 112.043 239.464 93.2893 220.711C74.5357 201.957 64 176.522 64 150L114 150C114 163.261 119.268 175.979 128.645 185.355C138.021 194.732 150.739 200 164 200L164 250Z" fill="white"/>
<rect x="64" y="100" width="200" height="50" fill="white"/>
</svg>
